Coordinates
version=1
nRows=9
nColumns=24
inDegrees=yes

Units are S.I. units (second, meters, Newtons, ...)
Angles are in degrees.

endheader
time	pelvis_tilt	pelvis_list	pelvis_rotation	pelvis_tx	pelvis_ty	pelvis_tz	hip_flexion_r	hip_adduction_r	hip_rotation_r	knee_angle_r	ankle_angle_r	subtalar_angle_r	mtp_angle_r	hip_flexion_l	hip_adduction_l	hip_rotation_l	knee_angle_l	ankle_angle_l	subtalar_angle_l	mtp_angle_l	lumbar_extension	lumbar_bending	lumbar_rotation
      3.89000000	     59.53279541	    -17.83687624	      3.75219518	      0.54030713	      0.95816601	     -0.23901547	      4.64148003	     -8.96710926	    -23.71512756	    -54.75754175	    -18.03673461	      0.00000000	      0.00000000	     14.32259862	    -14.82547687	     10.38947196	    -68.85265550	    -26.27526736	      0.00000000	      0.00000000	      0.00000000	      0.00000000	      0.00000000
      3.90000000	     59.55512016	    -17.88126161	      3.73692093	      0.54030778	      0.95812946	     -0.23899043	      4.67969594	     -8.82984600	    -23.76749376	    -54.49829224	    -18.09031979	      0.00000000	      0.00000000	     14.05203132	    -14.87388925	     10.52555919	    -67.74046043	    -26.21918099	      0.00000000	      0.00000000	      0.00000000	      0.00000000	      0.00000000
      3.91000000	     59.58660393	    -17.92692496	      3.72105028	      0.54025745	      0.95810386	     -0.23896351	      4.71864378	     -8.71004103	    -23.83906344	    -54.30104188	    -18.15553283	      0.00000000	      0.00000000	     13.82221888	    -14.92336252	     10.63935511	    -66.69635148	    -26.16675900	      0.00000000	      0.00000000	      0.00000000	      0.00000000	      0.00000000
      3.92000000	     59.62805784	    -17.97137189	      3.70549380	      0.54016346	      0.95807557	     -0.23894187	      4.75194140	     -8.60706204	    -23.93862236	    -54.16550445	    -18.21786521	      0.00000000	      0.00000000	     13.63425652	    -14.97280349	     10.72273145	    -65.72810298	    -26.11693370	      0.00000000	      0.00000000	      0.00000000	      0.00000000	      0.00000000
      3.93000000	     59.68007549	    -18.01280489	      3.69306787	      0.54004279	      0.95803227	     -0.23892535	      4.77370802	     -8.51916528	    -24.07407398	    -54.08943665	    -18.26476410	      0.00000000	      0.00000000	     13.48739590	    -15.02199110	     10.76779860	    -64.83958001	    -26.06778794	      0.00000000	      0.00000000	      0.00000000	      0.00000000	      0.00000000
      3.94000000	     59.74241506	    -18.05084987	      3.68835243	      0.53990359	      0.95799635	     -0.23891056	      4.77985932	     -8.44583567	    -24.24801334	    -54.06823447	    -18.28973815	      0.00000000	      0.00000000	     13.37949179	    -15.07274329	     10.76986640	    -64.03153678	    -26.01685557	      0.00000000	      0.00000000	      0.00000000	      0.00000000	      0.00000000
      3.95000000	     59.81311432	    -18.08554993	      3.69552334	      0.53974199	      0.95798905	     -0.23891092	      4.76785357	     -8.38698175	    -24.45643719	    -54.09554567	    -18.29402898	      0.00000000	      0.00000000	     13.30762876	    -15.12798436	     10.72901991	    -63.30272202	    -25.96178737	      0.00000000	      0.00000000	      0.00000000	      0.00000000	      0.00000000
      3.96000000	     59.88914390	    -18.11646513	      3.71599472	      0.53956752	      0.95799273	     -0.23895196	      4.73680750	     -8.34101161	    -24.69047485	    -54.16388732	    -18.28535987	      0.00000000	      0.00000000	     13.26876294	    -15.18952021	     10.64963110	    -62.65064902	    -25.90101401	      0.00000000	      0.00000000	      0.00000000	      0.00000000	      0.00000000
      3.97000000	     59.96803613	    -18.14378874	      3.74807254	      0.53940478	      0.95798588	     -0.23902403	      4.68839568	     -8.30501723	    -24.93872471	    -54.26498800	    -18.27492899	      0.00000000	      0.00000000	     13.25995265	    -15.25661072	     10.53870612	    -62.07189019	    -25.83416466	      0.00000000	      0.00000000	      0.00000000	      0.00000000	      0.00000000
